<svg id="Layer_1" xmlns="http://www.w3.org/2000/svg" viewBox="0 0 660 225"><style>.st0{fill:#4e2817}.st2{fill:#f26922}</style><linearGradient id="SVGID_1_" gradientUnits="userSpaceOnUse" x1="330.3" y1="115.7" x2="331" y2="115"><stop offset="0" stop-color="#1eab4b"/><stop offset="1" stop-color="#19361a"/></linearGradient><path class="st0" d="M176.5 146.1c-7.2 0-13.8-.8-19.6-6.6l7.5-7.5c3.8 3.8 8.7 4.3 12.3 4.3 4 0 8.1-1.3 8.1-4.8 0-2.3-1.2-3.9-4.9-4.2l-7.2-.7c-8.3-.8-13.4-4.4-13.4-12.9 0-9.5 8.4-14.7 17.8-14.7 7.2 0 13.2 1.2 17.6 5.4l-7.1 7.2c-2.7-2.4-6.7-3.1-10.7-3.1-4.6 0-6.5 2.1-6.5 4.4 0 1.7.7 3.6 4.8 4l7.2.7c9.1.9 13.7 5.7 13.7 13.5 0 10.2-8.7 15-19.6 15zM216.1 145.6c-9.4 0-13.3-6.6-13.3-13.2v-22.8h-4.9v-8.7h4.9V87.3h11.5v13.6h8.1v8.7h-8.1v22.1c0 2.6 1.2 4.2 4 4.2h4.2v9.7h-6.4zM227.5 91.7v-9.4h11.8v9.4h-11.8zm.2 53.9v-46h11.5v46h-11.5zM265.1 146.1c-9.2 0-20.6-4.9-20.6-23.6 0-18.6 11.4-23.5 20.6-23.5 6.4 0 11.1 1.9 15.2 6.2l-7.8 7.8c-2.4-2.6-4.4-3.6-7.4-3.6a8 8 0 0 0-6.5 3c-1.8 2.2-2.6 5.3-2.6 10.2 0 4.9.8 8 2.6 10.3a8 8 0 0 0 6.5 3c3 0 5-1.1 7.4-3.6l7.8 7.7a20 20 0 0 1-15.2 6.1zM312 145.6l-11.3-19.2-4.9 5.5v13.7h-11.5V82.7h11.5v35.7l15.3-18.8H325l-16.4 18.6 17.7 27.5H312z"/><path class="st0" d="M335.8 126.1c0 5.9 3.6 10.2 10.1 10.2 5 0 7.5-1.4 10.4-4.3l7 6.8a21.9 21.9 0 0 1-17.5 7.2c-10.9 0-21.3-4.9-21.3-23.6 0-15 8.1-23.5 20.1-23.5 12.8 0 20.1 9.4 20.1 22v5.1h-28.9zm16.5-12.8c-1.2-2.7-3.8-4.8-7.7-4.8s-6.5 2-7.7 4.8a13 13 0 0 0-1.1 4.9h17.5a13 13 0 0 0-1-4.9zM395.1 112.1c-1.8-1.8-3.3-2.7-6.1-2.7-3.5 0-7.4 2.7-7.4 8.5v27.7h-11.5v-46h11.2v4.4c2.2-2.7 6.6-4.9 11.6-4.9 4.5 0 7.7 1.1 10.9 4.3l-8.7 8.7z"/><path d="M121.5 150.7c-.7.3-1.6.2-2.5.3-.8 0-1.9 0-2.4-.4-.3-.2-.3-.7-.3-1l.1-1.1c.1-.4.2-1 0-1.3-.2-.3-.9-.2-1.3-.4s-.5-.8-.6-1.4l-.2-.5c-.1-.9.2-2.2.4-3.1l.7-2.9c.3-1.4.3-3 .2-4.5 0-.8-.2-1.4 0-2l.5-1.7v-.6l.1-.5-.1-1.4c-.1-1.3 0-3.2.1-4.3 0-.4.2-.8-.1-1-1.4 0-2.6.2-3.9.4-3.4.4-7.8.5-11.1-.2l-.9-.1a15.5 15.5 0 0 1-7.1-3.6l-.9-.7c-1.3-.6-3.1.1-3.7 1l-.6 1.2-.5 1.2-2.8 6c-.5 1.2-1.1 2.5-1.5 3.8a19.1 19.1 0 0 0 .9 10c.2.6.6 1.5 1.1 1.9l1 .6c.4.3.6.9.9 1.5l.4.8c.3.6.5 1.1-.2 1.5-.5.3-1.3.3-2 .4-.3.1-.2.5-.4.7l-.8.4c-.9.3-2.5.3-3.2 0-.4-.1-.8-.4-.9-.7-.2-.6.3-1.3-.1-1.7-.2-.2-.6-.2-.9-.3-.5-.2-.9-.7-1.2-1.2-.5-1.4-.2-3.5-.3-5.2l-.1-1.6c0-1-.3-2-.4-3l-.3-1.3-.5-2.2a4 4 0 0 1 0-2.2l.4-.6c.2-.4.2-.8.2-1.2-.1-.2-.6 0-.7-.2l-.8-6.6-.1-2.3c-.1-1.5 0-3.1-.2-4.6l-.3-2.1c-.3-2-.8-4.5-.4-6.6a8 8 0 0 1 1.5-3.4l1.7-2 2-1.7 1.5-1c1.1-.5 2.6-1 4.2-1.1a20 20 0 0 1 4.9.2l4.5.8 4.2 1 .5.2 1.4.3c1.3.3 2.9.5 4.5.5 1.7 0 3.2 0 4.6-.4l.6-.2.7-.1.4-.3a16 16 0 0 0 2.2-1.3c.6-.4 1-.7 1.8-1l1-.4c.7-.2 1.5-.4 2-.8.9-.5 1.5-1.3 2.2-2l2.3-1.9 4.7-3.6 2.5-1.7c1.7-1 3.5-2.1 6-2.3h3c.3 0 .6.2.9.1.3-.1.5-.5.6-.8l1-1.9c.2-.5.1-1 .6-1s.4 1.3.4 1.8v1.8c.1.3.5.7.9.7.3 0 .5-.2.7-.4l.7-.4 1.3-1.2c.3-.3.9-1.2 1.4-1.1 1 .1 0 1.6-.2 2l-1.6 3c-.2.4-.8 1-.8 1.5 0 .3.3.5.4.9l.2.5.9 2.8.7 2.3 1 2.2.2.6c.6 1.6 1.2 3.4 2 5 .3.6.7 1.4.7 2.3 0 1-.5 1.5-1 2.3-.2.4-.6 1-1 1.1h-.9l-1 .3a2 2 0 0 1-2-1.3l-.1-.8c-.2-1.1-.8-1.6-1.5-2.4-.5-.5-.9-.8-1.5-1.1-.9-.5-1.8-.7-2.8-1.2-.3-.2-.8-.4-1.1-.3-.5.1-1 .9-1.4 1.4l-6.9 9.6c-1.6 2.1-3.2 4.2-4.5 6.5l-.8 2-.6 2.2c-.9 2.6-1.2 5.8-2 8.5l-.2.9-1.2 4.5c-.3 1.1-.4 2.6-.5 4 0 1.4-.1 3.3.4 4.1.3.5 1.2.6 1.5 1.1l.7 1.4c.2.3.7.9.6 1.4 0 .3-.3.6-.6.7l-1 .2c0 .4.1.8-.2 1z" fill-rule="evenodd" clip-rule="evenodd" fill="#4e2817"/><path class="st2" d="M455.4 99c-5.7 0-9.9 1.8-13.8 5.8-2.9-4-7.1-5.8-12.2-5.8-4.2 0-8.5 1.7-11.5 4.8v-4.2h-11.2v46h11.5v-27.8c0-6.3 4.1-8.4 7.7-8.4 3.6 0 7.6 2.1 7.6 8.4v27.8H445v-28.1c0-6 4.2-8.1 7.7-8.1 3.6 0 7.6 2.1 7.6 8.4v27.8h11.5v-29.4c0-5-1.3-9.4-5-13.1a16.4 16.4 0 0 0-11.4-4.1zM505.3 127.4c0 6.3-4.1 8.4-7.7 8.4-3.6 0-7.6-2.1-7.6-8.4V99.5h-11.5V129c0 5 1 9.4 4.7 13.1a15 15 0 0 0 10.9 4.1c4.2 0 8.5-1.6 11.5-4.8v4.2h11.2v-46h-11.5v27.8zM535.6 131.7v-49h-11.5v49.7c0 6.5 4 13.2 13.4 13.2h6.5v-9.7h-4.4c-2.9 0-4-1.4-4-4.2zM586.2 121c0-12.6-7.2-22-20.1-22-11.9 0-20.1 8.5-20.1 23.5 0 18.6 10.4 23.6 21.3 23.6 8.3 0 12.8-2.6 17.5-7.2l-7-6.8a12.7 12.7 0 0 1-10.4 4.3c-6.5 0-10.1-4.3-10.1-10.2h28.8V121zm-28.8-2.7c.1-2 .4-3.3 1.1-4.9a8 8 0 0 1 7.7-4.8 8 8 0 0 1 7.7 4.8 13 13 0 0 1 1.1 4.9h-17.6z"/></svg>
