<svg viewBox="0 0 500 500" xmlns="http://www.w3.org/2000/svg" xmlns:xlink="http://www.w3.org/1999/xlink">
  <polygon id="hexagone" stroke="#38b036" stroke-width="15" fill="#c5edc4" stroke-linejoin="round" points="435 356.800047 249.549987 464 64 356.800047 64 142.300047 249.549987 35 435 142.300047"></polygon>

  <g id="inside" transform="translate(57.000000, 29.000000)" fill="#38b036">
    <path d="M273.4,318.4 C273.4,317.1 272.487694,316 271.409514,316 L114.990486,316 C113.912306,316 113,317.1 113,318.4 C113,319.7 113.912306,320.8 114.990486,320.8 L271.409514,320.8 C272.487694,320.8 273.4,319.7 273.4,318.4 Z" id="line"></path>

    <g id="nodeschool" transform="translate(124.000000, 291.000000)">
      <path d="M133.2,13.5 L140,13.5 C140.7,13.5 141.3,12.9 141.3,12.2 C141.3,11.5 140.7,10.9 140,10.9 L134.6,10.9 L134.6,1.7 C134.6,0.9 134,0.2 133.1,0.2 C132.3,0.2 131.6,0.8 131.6,1.7 L131.6,12 C131.7,12.9 132.4,13.5 133.2,13.5 Z" id="L"></path>
      <path d="M106,13.7 C110.1,13.7 113,10.6 113,6.9 C113,3.1 110.1,0.1 106,0.1 C101.9,0.1 98.9,3.2 98.9,6.9 C99,10.7 101.9,13.7 106,13.7 Z M102,6.9 C102,4.6 103.6,2.8 106,2.8 C108.3,2.8 110,4.7 110,7 C110,9.3 108.4,11.1 106,11.1 C103.7,11 102,9.2 102,6.9 Z" id="O2" fill-rule="nonzero"></path>
      <path d="M122.1,13.7 C126.2,13.7 129.2,10.6 129.2,6.9 C129.2,3.1 126.3,0.1 122.2,0.1 C118.1,0.1 115.1,3.2 115.1,6.9 C115.1,10.7 118,13.7 122.1,13.7 Z M118.1,6.9 C118.1,4.6 119.7,2.8 122.1,2.8 C124.4,2.8 126.1,4.7 126.1,7 C126.1,9.3 124.5,11.1 122.1,11.1 C119.8,11 118.1,9.2 118.1,6.9 Z" id="O1" fill-rule="nonzero"></path>
      <path d="M86.7,13.6 C87.5,13.6 88.2,13 88.2,12.1 L88.2,8.1 L93.6,8.1 L93.6,12.1 C93.6,12.9 94.2,13.6 95.1,13.6 C95.9,13.6 96.6,13 96.6,12.1 L96.6,1.6 C96.6,0.8 96,0.1 95.1,0.1 C94.3,0.1 93.6,0.7 93.6,1.6 L93.6,5.5 L88.2,5.5 L88.2,1.6 C88.2,0.8 87.6,0.1 86.7,0.1 C85.9,0.1 85.2,0.7 85.2,1.6 L85.2,12.1 C85.2,13 85.8,13.6 86.7,13.6 Z" id="H"></path>
      <path d="M77.4,13.7 C79.5,13.7 80.9,13.1 82.1,12 C82.4,11.8 82.6,11.4 82.6,11 C82.6,10.3 82,9.7 81.2,9.7 C80.9,9.7 80.6,9.8 80.3,10 C79.5,10.7 78.7,11 77.4,11 C75.1,11 73.6,9.1 73.6,6.8 C73.6,4.5 75.2,2.7 77.4,2.7 C78.4,2.7 79.3,3 80.1,3.6 C80.3,3.7 80.6,3.9 81,3.9 C81.8,3.9 82.4,3.3 82.4,2.5 C82.4,2 82.1,1.6 81.8,1.3 C80.7,0.5 79.4,0 77.4,0 C73.3,0 70.5,3.1 70.5,6.8 C70.7,10.7 73.6,13.7 77.4,13.7 Z" id="C"></path>
      <path d="M58.9,12.1 C60.4,13.2 62.1,13.7 63.9,13.7 C66.8,13.7 68.8,12.2 68.8,9.6 C68.8,7.3 67.3,6.3 64.6,5.6 C62.3,5 61.7,4.7 61.7,3.9 C61.7,3.3 62.3,2.7 63.4,2.7 C64.3,2.7 65.2,3 66.2,3.6 C66.4,3.7 66.7,3.8 66.9,3.8 C67.7,3.8 68.3,3.2 68.3,2.5 C68.3,1.9 68,1.5 67.7,1.3 C66.5,0.5 65.1,0.1 63.5,0.1 C60.8,0.1 58.9,1.7 58.9,4.1 C58.9,6.7 60.6,7.5 63.3,8.1 C65.5,8.7 66,9 66,9.8 C66,10.6 65.3,11 64.1,11 C62.8,11 61.7,10.5 60.7,9.8 C60.5,9.7 60.2,9.5 59.9,9.5 C59.1,9.5 58.5,10.1 58.5,10.8 C58.3,11.5 58.6,11.9 58.9,12.1 Z" id="S"></path>
      <path d="M47.9,13.5 L55.3,13.5 C56,13.5 56.6,12.9 56.6,12.2 C56.6,11.5 56,10.9 55.3,10.9 L49.3,10.9 L49.3,8.1 L54.3,8.1 C55,8.1 55.6,7.5 55.6,6.8 C55.6,6.1 55,5.5 54.3,5.5 L49.3,5.5 L49.3,2.8 L55.2,2.8 C55.9,2.8 56.5,2.2 56.5,1.5 C56.5,0.8 55.9,0.2 55.2,0.2 L47.9,0.2 C47.1,0.2 46.4,0.8 46.4,1.7 L46.4,12 C46.5,12.9 47.1,13.5 47.9,13.5 Z" id="E"></path>
      <path d="M33.1,13.5 L36.8,13.5 C41,13.5 43.8,10.6 43.8,6.9 C43.8,3.2 40.9,0.3 36.8,0.3 L33.1,0.3 C32.3,0.3 31.6,0.9 31.6,1.8 L31.6,12 C31.7,12.9 32.3,13.5 33.1,13.5 Z M34.6,2.9 L36.8,2.9 C39.2,2.9 40.8,4.5 40.8,6.9 C40.8,9.2 39.2,10.9 36.8,10.9 L34.6,10.9 L34.6,2.9 Z" id="D" fill-rule="nonzero"></path>
      <path d="M22,13.7 C26.1,13.7 29.1,10.6 29.1,6.9 C29.1,3.1 26.2,0.1 22.1,0.1 C18,0.1 15,3.2 15,6.9 C15,10.7 17.9,13.7 22,13.7 Z M18.1,6.9 C18.1,4.6 19.7,2.8 22.1,2.8 C24.4,2.8 26.1,4.7 26.1,7 C26.1,9.3 24.5,11.1 22.1,11.1 C19.7,11 18.1,9.2 18.1,6.9 Z" id="O3" fill-rule="nonzero"></path>
      <path d="M2.1,13.6 C2.9,13.6 3.5,13 3.5,12.2 L3.5,5.1 L9.3,12.7 C9.7,13.2 10.1,13.6 10.8,13.6 L10.9,13.6 C11.7,13.6 12.4,13 12.4,12.1 L12.4,1.6 C12.4,0.8 11.8,0.2 11,0.2 C10.2,0.2 9.6,0.8 9.6,1.6 L9.6,8.4 L4,1 C3.6,0.5 3.2,0.1 2.5,0.1 L2.2,0.1 C1.4,0.1 0.7,0.7 0.7,1.6 L0.7,12.1 C0.7,13 1.3,13.6 2.1,13.6 Z" id="N"></path>
    </g>

    <path d="M269.3,361.2 C268.8,360.3 267.6,360 266.8,360.5 L200.5,398.8 L228.7,362.8 C229.3,362 229.2,360.8 228.4,360.2 C227.6,359.6 226.4,359.7 225.8,360.5 L195,399.8 L195,361.4 C195,360.4 194.2,359.5 193.1,359.5 C192,359.5 191.2,360.3 191.2,361.4 L191.2,399.8 L160.4,360.5 C159.8,359.7 158.6,359.6 157.8,360.2 C157,360.8 156.9,362 157.5,362.8 L185.7,398.8 L118.1,359.8 C117.2,359.3 116.1,359.6 115.6,360.5 C115.1,361.4 115.4,362.5 116.3,363 L192.2,406.8 C192.2,406.8 192.2,406.8 192.3,406.8 C192.4,406.8 192.4,406.9 192.5,406.9 C192.5,406.9 192.5,406.9 192.6,406.9 C192.6,406.9 192.6,406.9 192.7,406.9 C192.7,406.9 192.8,406.9 192.8,406.9 C192.9,406.9 193.1,407 193.2,407 C193.2,407 193.2,407 193.2,407 C193.4,407 193.5,407 193.6,406.9 C193.6,406.9 193.7,406.9 193.7,406.9 C193.7,406.9 193.8,406.9 193.8,406.9 C193.9,406.9 193.9,406.8 194,406.8 C194,406.8 194,406.8 194.1,406.8 L268.8,363.7 C269.5,363.3 269.8,362.1 269.3,361.2 Z" id="down-arrow"></path>

    <path d="M269.8,78.3 L193.9,34.5 C193.9,34.5 193.9,34.5 193.9,34.5 C193.8,34.4 193.7,34.4 193.6,34.4 C193.6,34.4 193.6,34.4 193.6,34.4 C193.6,34.4 193.6,34.4 193.6,34.4 C193.6,34.4 193.5,34.4 193.5,34.4 C193.5,34.4 193.4,34.4 193.4,34.4 C193.3,34.4 193.2,34.4 193.1,34.4 C193.1,34.4 193.1,34.4 193,34.4 C193,34.4 192.9,34.4 192.9,34.4 C192.8,34.4 192.6,34.4 192.5,34.4 C192.5,34.4 192.5,34.4 192.5,34.4 C192.5,34.4 192.5,34.4 192.5,34.4 C192.5,34.4 192.5,34.4 192.5,34.4 C192.4,34.4 192.3,34.5 192.2,34.5 C192.2,34.5 192.2,34.5 192.2,34.5 L117.5,77.6 C116.6,78.1 116.3,79.2 116.8,80.1 C117.3,81 118.5,81.3 119.3,80.8 L185.7,42.5 L157.5,78.5 C156.9,79.3 157,80.5 157.8,81.1 C158.6,81.7 159.8,81.6 160.4,80.8 L191.2,41.5 L191.2,79.9 C191.2,80.9 192,81.8 193.1,81.8 C194.2,81.8 195,81 195,79.9 L195,41.5 L225.8,80.8 C226.2,81.3 226.7,81.5 227.3,81.5 C227.7,81.5 228.1,81.4 228.4,81.1 C229.2,80.5 229.3,79.3 228.7,78.5 L200.5,42.5 L268.1,81.5 C268.4,81.7 268.7,81.7 269,81.7 C269.6,81.7 270.3,81.4 270.6,80.8 C271,80 270.7,78.8 269.8,78.3 Z" id="up-arrow"></path>

    <circle id="dot-right" cx="274.3" cy="357.7" r="2.3"></circle>
    <circle id="dot-left" cx="110.8" cy="357.7" r="2.3"></circle>

    <path d="M145.297829,350.318972 C144.997829,349.718972 145.197829,349.018972 145.797829,348.618972 L148.697829,346.918972 C150.997829,345.618972 153.197829,346.118972 154.397829,348.118972 C155.697829,350.318972 154.597829,352.518972 152.397829,353.818972 L150.797829,354.718972 L151.897829,356.618972 C152.197829,357.218972 151.997829,357.918972 151.397829,358.318972 C150.797829,358.718972 150.097829,358.418972 149.697829,357.818972 L145.297829,350.318972 Z M151.397829,351.918972 C152.497829,351.318972 152.697829,350.318972 152.197829,349.518972 C151.597829,348.518972 150.697829,348.418972 149.597829,349.018972 L147.897829,350.018972 L149.597829,353.018972 L151.397829,351.918972 Z" id="P" fill-rule="nonzero" transform="translate(150.057563, 352.350552) rotate(-9.000000) translate(-150.057563, -352.350552) "></path>

    <path d="M188,348.7 L191.6,340.5 C191.9,339.9 192.3,339.6 192.9,339.6 L193,339.6 C193.6,339.6 194.1,339.9 194.3,340.5 L197.9,348.7 C198,348.9 198,349 198,349.2 C198,349.8 197.5,350.3 196.9,350.3 C196.4,350.3 196,350 195.8,349.5 L195.1,347.9 L190.5,347.9 L189.8,349.6 C189.6,350 189.2,350.3 188.7,350.3 C188.1,350.3 187.6,349.8 187.6,349.2 C187.9,349 187.9,348.8 188,348.7 Z M194.4,345.8 L193,342.4 L191.6,345.8 L194.4,345.8 Z" id="A" fill-rule="nonzero"></path>

    <path d="M233.927829,345.827829 C234.227829,345.227829 235.027829,345.027829 235.627829,345.327829 L239.027829,347.227829 C240.227829,347.927829 241.027829,348.827829 241.327829,349.827829 C241.527829,350.727829 241.427829,351.627829 240.927829,352.527829 C240.027829,354.027829 238.727829,354.527829 237.327829,354.327829 L237.727829,357.027829 C237.827829,357.427829 237.827829,357.727829 237.627829,358.027829 C237.327829,358.627829 236.527829,358.727829 236.027829,358.427829 C235.527829,358.127829 235.327829,357.727829 235.327829,357.227829 L234.727829,353.427829 L233.027829,352.427829 L231.827829,354.527829 C231.527829,355.127829 230.727829,355.327829 230.127829,355.027829 C229.527829,354.727829 229.327829,353.927829 229.627829,353.327829 L233.927829,345.827829 Z M236.127829,351.927829 C237.127829,352.527829 238.127829,352.327829 238.527829,351.527829 C239.027829,350.627829 238.727829,349.727829 237.627829,349.127829 L235.527829,347.927829 L233.927829,350.727829 L236.127829,351.927829 Z" id="R" fill-rule="nonzero" transform="translate(235.457202, 351.890823) rotate(8.000000) translate(-235.457202, -351.890823) "></path>
  </g>

  <g id="eiffel-tower" transform="translate(170.000000, 127.000000)" fill="#38b036">
    <path d="M147.567333,176.669746 L125.296203,133.558141 L125.296203,120.879637 L115.183223,120.879637 L106.477365,101.580883 C104.34247,96.84675 102.381685,91.9974453 100.62207,87.121125 L103.847556,87.121125 L103.847556,71.1303633 L95.6013628,71.1303633 C91.1745529,54.6714492 88.8634113,37.7159453 88.7234824,20.6705078 L94.0592962,20.6705078 L94.0592962,15.3406094 L88.7095963,15.3406094 L88.7095963,6.82784375 L80.7076558,0 L71.9911165,6.75035156 L71.9911165,15.3406094 L65.5842945,15.3406094 L65.5842945,20.6708633 L71.9729578,20.6708633 C71.7910146,34.2703867 70.2201077,47.8795078 67.2940621,61.1644414 C66.563797,64.4891406 65.7327687,67.8312578 64.8269693,71.1307187 L55.7956788,71.1307187 L55.7956788,87.1214805 L59.7083479,87.1214805 C57.8287428,92.2469844 55.7255364,97.3408516 53.429349,102.307105 L44.8342238,120.879992 L34.3473878,120.879992 L34.3473878,133.558496 L12.0762577,176.669746 L0,176.669746 L0,182 L44.4920567,182 L44.4920567,176.669746 L39.1128043,176.669746 L40.3219611,173.860832 C47.1151009,158.082285 62.6197952,147.886375 79.8221514,147.886375 C97.0245076,147.886375 112.529202,158.08193 119.322342,173.860832 L120.531498,176.669746 L115.508299,176.669746 L115.508299,182 L160,182 L160,176.669746 L147.567333,176.669746 Z M101.609049,103.769504 L109.327927,120.879637 L99.6706953,120.879637 L87.4463194,87.1214805 L94.9561943,87.1214805 C96.9216082,92.734332 99.154062,98.3262109 101.609049,103.769504 Z M93.9927143,120.879637 L66.0069297,120.879637 L78.2313055,87.121125 L81.7686945,87.121125 L93.9927143,120.879637 Z M77.3301348,9.36126953 L80.5445834,6.87227734 L83.3702219,9.28377734 L83.3702219,15.3402539 L77.3301348,15.3402539 L77.3301348,9.36126953 Z M72.5091739,62.3072734 C75.5167556,48.6483867 77.1300329,34.6546484 77.3123321,20.6708633 L83.3844641,20.6708633 C83.5208325,37.7056367 85.7628997,54.6554531 90.0711439,71.1307187 L70.3607487,71.1307187 C71.1419295,68.2020117 71.8636494,65.2473555 72.5091739,62.3072734 Z M98.5085375,76.4609727 L98.5085375,81.7912266 L61.1354093,81.7912266 L61.1354093,76.4609727 L98.5085375,76.4609727 Z M58.2770139,104.541582 C60.9078913,98.8519492 63.2927358,93.0005781 65.3856168,87.121125 L72.5533245,87.121125 L60.3289487,120.879281 L50.7155112,120.879281 L58.2770139,104.541582 Z M39.6867622,126.209891 L119.957185,126.209891 L119.957185,131.540145 L39.6867622,131.540145 L39.6867622,126.209891 Z M126.342643,176.669746 L124.227331,171.756102 C116.590701,154.018211 99.160471,142.556121 79.8217954,142.556121 C60.4831197,142.556121 43.0528895,154.0175 35.4162596,171.756102 L33.3009473,176.669746 L18.083944,176.669746 L38.6442383,136.870398 L120.999352,136.870398 L141.559647,176.669746 L126.342643,176.669746 Z" id="Shape" fill-rule="nonzero"></path>
    <polygon id="Rectangle" transform="translate(117.477937, 147.576935) rotate(-27.282492) translate(-117.477937, -147.576935) " points="114.811686 144.517558 120.14358 144.518088 120.144188 150.636313 114.812295 150.635783"></polygon>
    <polygon id="Rectangle" transform="translate(42.170075, 147.583412) rotate(-62.722600) translate(-42.170075, -147.583412) " points="39.1111934 144.91746 45.2284266 144.918069 45.2289568 150.249363 39.1117236 150.248754"></polygon>
    <rect id="Rectangle" x="78" y="60" width="6" height="7"></rect>
  </g>
</svg>
